<?xml version="1.0"?>
<svg xmlns="http://www.w3.org/2000/svg" viewBox="0 0 500 500" width="500" height="500">
  <title>TAS Logo</title>
  <path fill="#18181B" fill-rule="evenodd" d="M297.00 74.00l10.00 1.00l12.00 14.00l15.00 1.00l5.00 2.00l3.00 -1.00l6.00 2.00l8.00 0.00l4.00 -4.00l5.00 0.00l1.00 20.00l22.00 0.00l12.00 3.00l11.00 8.00l4.00 8.00l0.00 6.00l3.00 9.00l0.00 22.00l-2.00 13.00l-5.00 15.00l-3.00 6.00l-2.00 1.00l-2.00 7.00l-4.00 6.00l0.00 3.00l-7.00 14.00l-2.00 9.00l-5.00 11.00l-1.00 9.00l-2.00 2.00l0.00 5.00l-5.00 20.00l-2.00 3.00l-3.00 17.00l-2.00 2.00l-2.00 12.00l-20.00 0.00l-4.00 -9.00l2.00 10.00l14.00 0.00l9.00 3.00l6.00 7.00l3.00 6.00l0.00 4.00l4.00 1.00l1.00 3.00l9.00 0.00l2.00 2.00l1.00 23.00l2.00 2.00l0.00 6.00l2.00 1.00l0.00 10.00l-8.00 6.00l0.00 11.00l-6.00 14.00l-10.00 4.00l-9.00 0.00l-6.00 -3.00l-6.00 -8.00l-2.00 -12.00l-52.00 0.00l-1.00 11.00l-2.00 1.00l0.00 3.00l-5.00 7.00l-2.00 0.00l-1.00 2.00l-16.00 0.00l-4.00 -2.00l-5.00 -6.00l-6.00 -18.00l-13.00 -6.00l-6.00 0.00l-2.00 2.00l0.00 3.00l-8.00 7.00l-9.00 3.00l-5.00 0.00l-3.00 -2.00l-8.00 -1.00l-7.00 -5.00l-4.00 -10.00l0.00 -9.00l-11.00 0.00l-4.00 4.00l-1.00 4.00l-5.00 4.00l-13.00 0.00l-5.00 -2.00l-2.00 -3.00l-7.00 2.00l-9.00 0.00l-5.00 -4.00l0.00 -3.00l-2.00 -2.00l0.00 -16.00l3.00 -3.00l0.00 -2.00l5.00 -4.00l-1.00 -3.00l-2.00 0.00l1.00 3.00l-5.00 4.00l-3.00 7.00l-12.00 0.00l-7.00 -2.00l-13.00 0.00l-7.00 -3.00l-6.00 -7.00l-1.00 -5.00l-2.00 -2.00l0.00 -17.00l10.00 -9.00l0.00 -27.00l4.00 -8.00l0.00 -20.00l2.00 -5.00l3.00 -3.00l2.00 0.00l6.00 -6.00l1.00 -3.00l9.00 -1.00l5.00 -5.00l7.00 1.00l11.00 -13.00l0.00 -2.00l4.00 -3.00l3.00 -6.00l5.00 -4.00l3.00 -6.00l4.00 -3.00l0.00 -2.00l5.00 -4.00l2.00 -4.00l1.00 -16.00l3.00 -3.00l5.00 -1.00l12.00 -13.00l2.00 0.00l0.00 -6.00l4.00 -3.00l0.00 -2.00l11.00 -12.00l2.00 -5.00l8.00 -8.00l0.00 -2.00l3.00 -2.00l0.00 -2.00l3.00 -2.00l3.00 -6.00l4.00 -3.00l0.00 -2.00l3.00 -2.00l3.00 -6.00l4.00 -3.00l0.00 -18.00l8.00 0.00l2.00 4.00l38.00 2.00l5.00 -5.00l0.00 -2.00ZM297.25 80.00l-5.25 6.00l0.00 2.00l6.00 0.00ZM306.25 81.00l-0.25 8.00l7.00 0.00ZM302.25 83.00l0.75 5.00ZM247.25 88.00l-0.25 2.00l18.00 2.00l92.00 6.00l0.00 -2.00l-4.00 -1.00l-20.00 0.00ZM247.25 94.00l-1.25 2.00l1.00 3.00l9.00 0.00l1.00 -2.00l9.00 -1.00ZM361.25 94.00l0.75 16.00ZM273.25 99.00l-12.25 1.00l0.00 2.00l84.00 4.00l-4.00 -2.00l-11.00 -1.00l-3.00 -2.00l-7.00 0.00l-5.00 -2.00ZM247.25 104.00l-1.25 22.00l1.00 3.00l3.00 0.00l0.00 -25.00ZM256.25 104.00l-0.25 25.00l11.00 0.00l0.00 -25.00ZM273.25 105.00l-0.25 24.00l12.00 0.00l0.00 -23.00ZM237.25 106.00l-1.25 1.00l0.00 17.00l2.00 -2.00ZM292.25 106.00l-1.25 1.00l0.00 22.00l10.00 1.00l2.00 -1.00l0.00 -22.00ZM307.25 108.00l-0.25 21.00l10.00 1.00l2.00 -1.00l0.00 -21.00ZM323.25 109.00l0.75 18.00l1.00 -2.00l10.00 -3.00l0.00 -11.00l-4.00 -2.00ZM339.25 110.00l-0.25 10.00l11.00 -4.00l0.00 -5.00ZM353.25 111.00l-0.25 4.00l3.00 0.00l1.00 -4.00ZM231.25 113.00l-0.25 2.00l-4.00 3.00l0.00 2.00l-9.00 10.00l0.00 17.00l6.00 -6.00l3.00 -6.00l5.00 -4.00ZM374.25 114.00l-29.25 7.00l-2.00 2.00l-3.00 0.00l-1.00 2.00l-7.00 1.00l-14.00 7.00l-1.00 2.00l-5.00 1.00l-1.00 2.00l-6.00 2.00l-1.00 2.00l-14.00 7.00l-10.00 8.00l-4.00 1.00l-2.00 3.00l-2.00 0.00l-5.00 5.00l-9.00 5.00l-2.00 3.00l-2.00 0.00l-7.00 7.00l-5.00 2.00l-5.00 6.00l-6.00 3.00l-5.00 6.00l-6.00 3.00l-7.00 8.00l-2.00 0.00l-6.00 7.00l-2.00 0.00l0.00 2.00l-2.00 0.00l-51.00 53.00l-5.00 2.00l0.00 -3.00l5.00 -5.00l0.00 -5.00l-2.00 -1.00l-5.00 6.00l0.00 10.00l-3.00 1.00l-2.00 -6.00l0.00 2.00l-2.00 1.00l0.00 6.00l-4.00 -1.00l-4.00 7.00l-8.00 6.00l0.00 4.00l6.00 -6.00l2.00 0.00l0.00 4.00l-44.00 43.00l0.00 4.00l5.00 -2.00l3.00 -4.00l5.00 -2.00l4.00 -5.00l6.00 -3.00l9.00 -9.00l2.00 0.00l2.00 -3.00l7.00 -4.00l1.00 43.00l7.00 2.00l-1.00 -2.00l-3.00 0.00l-2.00 -2.00l0.00 -65.00l6.00 -2.00l4.00 -4.00l18.00 -9.00l9.00 -7.00l3.00 0.00l9.00 -7.00l8.00 -3.00l4.00 -4.00l11.00 -5.00l1.00 -2.00l4.00 -1.00l1.00 -2.00l4.00 -1.00l1.00 -2.00l6.00 -2.00l3.00 -3.00l105.00 0.00l2.00 60.00l5.00 4.00l4.00 1.00l4.00 4.00l0.00 4.00l4.00 8.00l-3.00 -13.00l-4.00 -4.00l-9.00 -4.00l-1.00 -62.00l-96.00 0.00l-1.00 -2.00l4.00 -2.00l2.00 -3.00l2.00 0.00l2.00 -3.00l2.00 0.00l2.00 -3.00l2.00 0.00l2.00 -3.00l10.00 -5.00l1.00 -2.00l5.00 -1.00l1.00 -2.00l16.00 -8.00l3.00 0.00l1.00 -2.00l3.00 0.00l2.00 -2.00l46.00 -14.00l23.00 -4.00l9.00 0.00l6.00 -2.00l10.00 0.00l6.00 -22.00l13.00 -26.00l-6.00 -6.00l-4.00 0.00l-2.00 -2.00ZM407.25 127.00l-2.25 2.00l-4.00 8.00l0.00 3.00l-3.00 4.00l-8.00 25.00l0.00 5.00l8.00 8.00l6.00 12.00l2.00 -1.00l1.00 -5.00l2.00 -2.00l3.00 -13.00l0.00 -29.00l-2.00 -12.00ZM237.25 130.00l-1.25 2.00l0.00 17.00l2.00 -1.00ZM247.25 133.00l-0.25 22.00l3.00 0.00l0.00 -22.00ZM256.25 133.00l-0.25 22.00l11.00 0.00l0.00 -22.00ZM273.25 133.00l-0.25 22.00l3.00 0.00l1.00 -2.00l8.00 -4.00l0.00 -16.00ZM291.25 133.00l-0.25 11.00l9.00 -4.00l3.00 -3.00l0.00 -4.00ZM231.25 137.00l-3.25 6.00l-10.00 10.00l0.00 18.00l7.00 -7.00l0.00 -2.00l2.00 0.00l0.00 -2.00l5.00 -4.00ZM212.25 138.00l-13.25 17.00l0.00 16.00l5.00 -4.00l2.00 -5.00l8.00 -9.00l0.00 -15.00ZM237.25 157.00l-1.25 1.00l0.00 19.00l2.00 -1.00ZM247.25 158.00l-0.25 16.00l2.00 0.00l1.00 -16.00ZM256.25 158.00l-0.25 10.00l11.00 -7.00l0.00 -3.00ZM334.00 159.00l6.00 1.00l2.00 4.00l0.00 7.00l-3.00 3.00l-5.00 -1.00l0.00 -2.00l-2.00 -1.00l-1.00 -8.00ZM213.25 160.00l-7.25 8.00l0.00 2.00l-4.00 3.00l0.00 2.00l-3.00 2.00l0.00 16.00l3.00 -2.00l0.00 -2.00l2.00 0.00l0.00 -2.00l5.00 -4.00l0.00 -2.00l5.00 -5.00ZM194.25 161.00l-6.25 7.00l0.00 2.00l-5.00 4.00l0.00 2.00l-3.00 2.00l0.00 17.00l4.00 -3.00l3.00 -6.00l8.00 -8.00ZM231.25 163.00l-0.25 2.00l-13.00 13.00l-1.00 16.00l2.00 0.00l6.00 -7.00l2.00 0.00l5.00 -5.00ZM336.25 164.00l-0.25 6.00l2.00 0.00l0.00 -6.00ZM403.00 173.00l3.00 0.00l2.00 2.00l0.00 6.00l-2.00 2.00l-5.00 1.00l-2.00 -1.00l0.00 -6.00ZM174.25 182.00l-3.25 3.00l0.00 19.00l5.00 -4.00l0.00 -18.00ZM194.25 183.00l-1.25 3.00l-5.00 4.00l0.00 2.00l-3.00 2.00l0.00 2.00l-2.00 0.00l0.00 2.00l-3.00 2.00l0.00 15.00l5.00 -4.00l0.00 -2.00l2.00 0.00l0.00 -2.00l8.00 -8.00ZM212.25 185.00l-13.25 14.00l0.00 13.00l3.00 -1.00l12.00 -12.00l0.00 -14.00ZM166.25 205.00l-3.25 5.00l0.00 6.00l4.00 -4.00ZM193.25 205.00l-2.25 4.00l-8.00 7.00l0.00 2.00l-2.00 0.00l-1.00 13.00l4.00 -2.00l0.00 -2.00l2.00 0.00l1.00 -3.00l2.00 0.00l0.00 -2.00l6.00 -5.00l0.00 -12.00ZM174.25 207.00l-3.25 3.00l0.00 14.00l5.00 -4.00l0.00 -13.00ZM159.25 214.00l-6.25 8.00l1.00 7.00l6.00 -7.00ZM166.25 219.00l-3.25 3.00l1.00 12.00l1.00 -2.00l2.00 0.00ZM148.25 228.00l-5.25 7.00l0.00 8.00l7.00 -8.00l0.00 -7.00ZM159.25 228.00l-5.25 7.00l0.00 10.00l6.00 -6.00ZM175.25 229.00l-4.25 4.00l0.00 7.00l2.00 0.00l3.00 -3.00ZM224.25 234.00l-1.25 1.00l0.00 101.00l3.00 4.00l20.00 -1.00l3.00 -2.00l5.00 -17.00l2.00 -2.00l2.00 -10.00l7.00 -11.00l7.00 -3.00l11.00 -2.00l39.00 -3.00l-1.00 -55.00ZM218.25 237.00l-1.25 2.00l-11.00 5.00l-1.00 2.00l-18.00 9.00l-1.00 2.00l-18.00 9.00l-1.00 2.00l-11.00 5.00l-1.00 2.00l-15.00 7.00l-8.00 6.00l0.00 52.00l2.00 3.00l86.00 -2.00l0.00 -104.00ZM166.25 238.00l-2.25 3.00l0.00 8.00l3.00 -2.00ZM138.25 241.00l-2.25 3.00l0.00 8.00l3.00 -2.00l1.00 -7.00ZM149.25 241.00l-6.25 8.00l0.00 8.00l7.00 -6.00ZM159.25 246.00l-1.25 3.00l-4.00 3.00l0.00 8.00l6.00 -5.00ZM123.25 248.00l-0.25 3.00l7.00 2.00l1.00 7.00l2.00 -2.00l0.00 -8.00l-3.00 1.00ZM113.25 254.00l-3.25 2.00l5.00 1.00l3.00 3.00l0.00 2.00l3.00 0.00l2.00 -4.00l3.00 -1.00l-1.00 -2.00ZM138.25 256.00l-2.25 2.00l0.00 7.00l4.00 -3.00ZM109.25 260.00l-2.25 4.00l6.00 1.00l2.00 3.00l0.00 -4.00ZM126.25 262.00l-3.25 4.00l-2.00 0.00l-1.00 7.00l7.00 -7.00ZM132.25 263.00l-2.25 3.00l0.00 6.00l3.00 -2.00ZM100.25 265.00l-2.25 4.00l0.00 10.00l2.00 0.00l4.00 -7.00l3.00 -2.00l-1.00 -2.00ZM115.25 269.00l0.75 30.00ZM109.25 272.00l-5.25 7.00l-1.00 4.00l-2.00 1.00l-1.00 4.00l-2.00 1.00l-1.00 4.00l12.00 -14.00ZM126.25 274.00l-6.25 5.00l0.00 6.00l7.00 -4.00ZM109.25 285.00l-7.25 10.00l0.00 16.00l2.00 0.00l6.00 -5.00ZM308.25 294.00l-0.25 1.00l17.00 0.00l2.00 2.00l-2.00 -3.00ZM290.25 295.00l-0.25 1.00l8.00 0.00ZM97.25 300.00l-2.25 8.00l0.00 11.00l4.00 -2.00ZM328.25 301.00l-47.25 2.00l-3.00 3.00l0.00 15.00l2.00 2.00l7.00 -2.00l2.00 -2.00l11.00 -2.00l38.00 1.00l0.00 -6.00l-3.00 -11.00ZM265.25 305.00l-2.25 5.00l0.00 5.00l-2.00 2.00l0.00 5.00l12.00 0.00l0.00 -16.00ZM312.25 321.00l-0.25 1.00l18.00 2.00l-3.00 -2.00ZM259.25 326.00l-0.25 1.00l13.00 0.00ZM279.25 327.00l3.75 2.00l16.00 1.00l-9.00 -3.00ZM321.25 328.00l-3.25 1.00l-3.00 4.00l0.00 18.00l-3.00 4.00l1.00 20.00l3.00 0.00l1.00 -4.00l1.00 -34.00l7.00 -7.00l40.00 1.00l5.00 7.00l2.00 37.00l3.00 0.00l0.00 -11.00l-2.00 -4.00l2.00 -17.00l-3.00 -3.00l0.00 -8.00l-3.00 -3.00ZM307.25 331.00l2.75 3.00l0.00 -3.00ZM328.25 335.00l-0.25 3.00l32.00 0.00l0.00 -3.00ZM322.25 339.00l-1.25 1.00l-1.00 35.00l3.00 0.00ZM365.25 339.00l-0.25 35.00l3.00 0.00l-1.00 -34.00ZM328.25 341.00l-0.25 1.00l32.00 0.00ZM245.25 343.00l-19.25 1.00l-1.00 3.00l22.00 0.00l0.00 -4.00ZM289.25 345.00l-6.25 2.00l17.00 0.00l-5.00 -2.00ZM135.25 346.00l-0.25 2.00l85.00 0.00l0.00 -2.00ZM328.25 346.00l-0.25 2.00l32.00 0.00l0.00 -2.00ZM273.25 349.00l-3.25 2.00l8.00 1.00l5.00 6.00l1.00 4.00l2.00 1.00l-1.00 -12.00ZM191.25 351.00l-35.25 1.00l-10.00 2.00l80.00 3.00l0.00 -6.00ZM232.25 351.00l-0.25 6.00l16.00 0.00l0.00 -6.00ZM328.25 351.00l-0.25 2.00l32.00 0.00l0.00 -2.00ZM291.25 352.00l-0.25 14.00l5.00 0.00l-3.00 -4.00l1.00 -6.00l2.00 -2.00l7.00 0.00l3.00 3.00l0.00 -5.00ZM379.25 352.00l-1.25 3.00l1.00 3.00l2.50 -2.00l6.00 0.00l0.00 9.50l5.50 0.50l0.00 -14.00ZM328.25 356.00l-0.25 2.00l32.00 0.00l0.00 -2.00ZM298.25 357.00l-1.25 4.00l2.00 2.00l4.00 -1.00l0.00 -4.00ZM382.75 358.00l-1.25 4.25l3.50 0.75l1.75 -4.00ZM141.25 359.00l-3.25 1.00l-4.00 5.00l0.00 15.00l4.00 5.00l9.00 0.00l3.00 -3.00l2.00 -6.00l0.00 -9.00l-4.00 -7.00ZM267.25 360.00l-4.25 3.00l-2.00 4.00l0.00 11.00l3.00 -4.00l1.00 -5.00l2.00 0.00l2.00 -4.00l7.00 -3.00l-3.00 -2.00ZM159.25 361.00l-3.25 4.00l0.00 21.00l2.00 2.00l6.00 1.00l3.00 -1.00l2.00 -4.00l0.00 -15.00l-1.00 8.00l-3.00 6.00l-5.00 1.00l-3.00 -3.00l0.00 -15.00l6.00 -3.00l3.00 2.00l2.00 4.00l0.00 -4.00l-3.00 -4.00ZM171.25 361.00l1.75 5.00l0.00 16.00l-2.00 6.00l2.00 0.00l3.00 -3.00l1.00 -4.00l0.00 -12.00l-2.00 -5.00ZM198.25 361.00l0.75 4.00l3.00 -4.00ZM328.25 361.00l-0.25 2.00l32.00 0.00l0.00 -2.00ZM180.25 363.00l1.75 9.00l0.00 -8.00ZM186.25 363.00l1.75 10.00l0.00 -8.00ZM207.25 363.00l-2.25 3.00l-2.00 0.00l-2.00 9.00l5.00 -7.00l6.00 0.00l0.00 -2.00ZM217.25 363.00l-0.25 5.00l3.00 7.00l0.00 17.00l-5.00 10.00l4.00 0.00l3.00 -3.00l3.00 -9.00l-1.00 -20.00l-3.00 -6.00ZM227.25 363.00l-0.25 4.00l3.00 8.00l0.00 17.00l-5.00 10.00l4.00 0.00l3.00 -3.00l3.00 -9.00l-1.00 -21.00l-4.00 -6.00ZM235.25 363.00l3.75 9.00l8.00 0.00l1.00 -9.00ZM138.00 363.00l7.00 0.00l4.00 5.00l0.00 7.00l-5.00 5.00l-6.00 -1.00l-3.00 -5.00l0.00 -8.00ZM193.25 364.00l-1.25 1.00l1.00 13.00l3.00 0.00l0.00 -8.00ZM274.25 367.00l-5.25 4.00l-1.00 4.00l-2.00 1.00l-2.00 8.00l0.00 12.00l2.00 12.00l5.00 11.00l3.00 2.00l4.00 0.00l4.00 -3.00l4.00 -10.00l1.00 -20.00l-3.00 -13.00l-5.00 -4.00l-2.00 -4.00ZM328.25 367.00l-0.25 2.00l33.00 -1.00ZM141.25 368.00l-1.25 4.00l1.00 3.00l2.00 0.00l0.00 -6.00ZM161.25 370.00l0.75 7.00ZM294.25 370.00l-7.25 1.00l1.00 2.00l18.00 0.00l-2.00 -3.00ZM380.25 370.00l-0.25 3.00l13.00 0.00l-1.00 -3.00ZM328.25 372.00l-0.25 2.00l32.00 0.00l0.00 -2.00ZM273.00 373.00l5.00 0.00l4.00 4.00l3.00 9.00l0.00 16.00l-3.00 8.00l-5.00 3.00l-4.00 -1.00l-4.00 -4.00l-4.00 -12.00l0.00 -10.00l2.00 -3.00l0.00 -4.00ZM210.25 375.00l-1.25 1.00l0.00 11.00l3.00 4.00l2.00 -3.00l0.00 -8.00ZM247.25 375.00l-1.25 15.00l2.00 2.00l4.00 0.00l1.00 2.00l6.00 1.00l-2.00 -17.00ZM200.25 376.00l-0.25 13.00l3.00 11.00l2.00 0.00l1.00 2.00l6.00 0.00l2.00 -6.00l-8.00 0.00l-2.00 -3.00l-2.00 0.00ZM240.25 377.00l-1.25 2.00l3.00 0.00l0.00 -2.00ZM205.25 379.00l0.75 9.00ZM292.25 379.00l-1.25 11.00l104.00 0.00l0.00 -11.00ZM273.25 380.00l-3.25 4.00l-1.00 11.00l2.00 -3.00l1.00 -8.00l2.00 -2.00ZM276.25 383.00l-1.25 3.00l0.00 14.00l1.00 4.00l3.00 2.00l1.00 -23.00ZM383.25 394.00l-1.25 11.00l-7.00 14.00l5.00 0.00l5.00 -4.00l3.00 -21.00ZM291.25 395.00l-1.25 12.00l-6.00 12.00l1.00 3.00l5.00 -1.00l0.00 -2.00l4.00 -4.00l3.00 -10.00l-1.00 -10.00ZM301.25 395.00l-0.25 2.00l64.00 0.00l0.00 -2.00ZM376.25 396.00l-1.25 10.00l-4.00 5.00l-7.00 0.00l-6.00 -5.00l0.00 6.00l8.00 8.00l5.00 -1.00l4.00 -6.00l0.00 -4.00l3.00 -7.00l0.00 -6.00ZM270.25 397.00l0.75 5.00ZM363.25 401.00l-0.25 4.00l2.00 1.00l1.00 -5.00Z"></path>
  <path fill="#DC2626" fill-rule="evenodd" d="M224.00 234.00l97.00 0.00l1.00 55.00l-39.00 3.00l-11.00 2.00l-7.00 3.00l-7.00 11.00l-2.00 10.00l-2.00 2.00l-5.00 17.00l-3.00 2.00l-20.00 1.00l-3.00 -4.00ZM218.00 237.00l2.00 0.00l0.00 104.00l-86.00 2.00l-2.00 -3.00l0.00 -52.00l8.00 -6.00l6.00 -2.00l1.00 -2.00l8.00 -3.00l6.00 -5.00l11.00 -5.00l1.00 -2.00l13.00 -6.00l6.00 -5.00l13.00 -6.00l6.00 -5.00l6.00 -2.00Z"></path>
</svg>